<svg width="43" height="67" viewBox="0 0 43 67" fill="none" xmlns="http://www.w3.org/2000/svg">
<path d="M0.93 67H-1.07V69H0.93V67ZM0.93 54.52V52.52H-1.07V54.52H0.93ZM15.618 54.52V56.52H17.618V54.52H15.618ZM15.618 13.24H17.618V11.24H15.618V13.24ZM3.33 13.24H1.33V15.24H3.33V13.24ZM3.33 5.752L2.10375 4.17203L1.33 4.77255V5.752H3.33ZM9.762 0.759995V-1.24001H9.07694L8.53575 -0.819979L9.762 0.759995ZM29.442 0.759995H31.442V-1.24001H29.442V0.759995ZM29.442 54.52H27.442V56.52H29.442V54.52ZM42.594 54.52H44.594V52.52H42.594V54.52ZM42.594 67V69H44.594V67H42.594ZM2.93 67V54.52H-1.07V67H2.93ZM0.93 56.52H15.618V52.52H0.93V56.52ZM17.618 54.52V13.24H13.618V54.52H17.618ZM15.618 11.24H3.33V15.24H15.618V11.24ZM5.33 13.24V5.752H1.33V13.24H5.33ZM4.55625 7.33197L10.9882 2.33997L8.53575 -0.819979L2.10375 4.17203L4.55625 7.33197ZM9.762 2.75999H29.442V-1.24001H9.762V2.75999ZM27.442 0.759995V54.52H31.442V0.759995H27.442ZM29.442 56.52H42.594V52.52H29.442V56.52ZM40.594 54.52V67H44.594V54.52H40.594ZM42.594 65H0.93V69H42.594V65Z" fill="#FEAD29"/>
</svg>
