<svg width="45" height="67" viewBox="0 0 45 67" fill="none" xmlns="http://www.w3.org/2000/svg">
<path d="M0.202 62.008H-1.798V62.9874L-1.02425 63.588L0.202 62.008ZM0.202 54.52V52.52H-1.798V54.52H0.202ZM7.306 39.16H5.306V41.16H7.306V39.16ZM7.306 26.68V24.68H5.306V26.68H7.306ZM1.162 13.24H-0.837999V15.24H1.162V13.24ZM1.162 5.752L-0.0642481 4.17203L-0.837999 4.77255V5.752H1.162ZM7.594 0.759995V-1.24001H6.90894L6.36775 -0.819979L7.594 0.759995ZM42.346 29.272L43.7602 30.6862L43.7602 30.6862L42.346 29.272ZM38.986 32.632L37.5718 31.2178L36.1576 32.632L37.5718 34.0462L38.986 32.632ZM42.346 35.992L43.7602 34.5778H43.7602L42.346 35.992ZM6.634 67L5.40775 68.58L5.94894 69H6.634V67ZM2.202 62.008V54.52H-1.798V62.008H2.202ZM0.202 56.52H28.042V52.52H0.202V56.52ZM28.042 56.52C29.3103 56.52 30.6289 56.2016 31.6162 55.2142C32.6036 54.2269 32.922 52.9083 32.922 51.64H28.922C28.922 51.9593 28.8814 52.1573 28.8446 52.2675C28.8269 52.3207 28.8109 52.3512 28.802 52.366C28.7936 52.3801 28.7886 52.3849 28.7878 52.3858C28.7869 52.3866 28.7821 52.3915 28.768 52.4C28.7532 52.4089 28.7227 52.4249 28.6695 52.4426C28.5593 52.4794 28.3613 52.52 28.042 52.52V56.52ZM32.922 51.64V42.04H28.922V51.64H32.922ZM32.922 42.04C32.922 40.7717 32.6036 39.4531 31.6162 38.4658C30.6289 37.4784 29.3103 37.16 28.042 37.16V41.16C28.3613 41.16 28.5593 41.2006 28.6695 41.2374C28.7227 41.2551 28.7532 41.2711 28.768 41.28C28.7821 41.2884 28.7869 41.2934 28.7878 41.2942C28.7886 41.2951 28.7936 41.2999 28.802 41.314C28.8109 41.3288 28.8269 41.3593 28.8446 41.4125C28.8814 41.5227 28.922 41.7207 28.922 42.04H32.922ZM28.042 37.16H7.306V41.16H28.042V37.16ZM9.306 39.16V26.68H5.306V39.16H9.306ZM7.306 28.68H28.042V24.68H7.306V28.68ZM28.042 28.68C29.3103 28.68 30.6289 28.3616 31.6162 27.3742C32.6036 26.3869 32.922 25.0683 32.922 23.8H28.922C28.922 24.1193 28.8814 24.3173 28.8446 24.4275C28.8269 24.4807 28.8109 24.5112 28.802 24.526C28.7936 24.5401 28.7886 24.5449 28.7878 24.5458C28.7869 24.5466 28.7821 24.5515 28.768 24.56C28.7532 24.5689 28.7227 24.5849 28.6695 24.6026C28.5593 24.6394 28.3613 24.68 28.042 24.68V28.68ZM32.922 23.8V16.12H28.922V23.8H32.922ZM32.922 16.12C32.922 14.8517 32.6036 13.5331 31.6162 12.5458C30.6289 11.5584 29.3103 11.24 28.042 11.24V15.24C28.3613 15.24 28.5593 15.2806 28.6695 15.3174C28.7227 15.3351 28.7532 15.3511 28.768 15.36C28.7821 15.3685 28.7869 15.3734 28.7878 15.3742C28.7886 15.3751 28.7936 15.3799 28.802 15.394C28.8109 15.4088 28.8269 15.4393 28.8446 15.4925C28.8814 15.6027 28.922 15.8007 28.922 16.12H32.922ZM28.042 11.24H1.162V15.24H28.042V11.24ZM3.162 13.24V5.752H-0.837999V13.24H3.162ZM2.38825 7.33197L8.82025 2.33997L6.36775 -0.819979L-0.0642481 4.17203L2.38825 7.33197ZM7.594 2.75999H28.618V-1.24001H7.594V2.75999ZM28.618 2.75999C33.6857 2.75999 37.1191 4.02557 39.2998 6.20621C41.4804 8.38685 42.746 11.8203 42.746 16.888H46.746C46.746 11.2037 45.3236 6.57314 42.1282 3.37778C38.9329 0.182423 34.3023 -1.24001 28.618 -1.24001V2.75999ZM42.746 16.888V23.032H46.746V16.888H42.746ZM42.746 23.032C42.746 25.1375 42.1062 26.6833 40.9318 27.8578L43.7602 30.6862C45.7858 28.6607 46.746 26.0465 46.746 23.032H42.746ZM40.9318 27.8578L37.5718 31.2178L40.4002 34.0462L43.7602 30.6862L40.9318 27.8578ZM37.5718 34.0462L40.9318 37.4062L43.7602 34.5778L40.4002 31.2178L37.5718 34.0462ZM40.9318 37.4062C42.1062 38.5807 42.746 40.1265 42.746 42.232H46.746C46.746 39.2175 45.7858 36.6033 43.7602 34.5778L40.9318 37.4062ZM42.746 42.232V50.872H46.746V42.232H42.746ZM42.746 50.872C42.746 55.9397 41.4804 59.3731 39.2998 61.5538C37.1191 63.7344 33.6857 65 28.618 65V69C34.3023 69 38.9329 67.5776 42.1282 64.3822C45.3236 61.1869 46.746 56.5563 46.746 50.872H42.746ZM28.618 65H6.634V69H28.618V65ZM7.86025 65.42L1.42825 60.428L-1.02425 63.588L5.40775 68.58L7.86025 65.42Z" fill="#FEAD29"/>
</svg>
