<svg width="46" height="67" viewBox="0 0 46 67" fill="none" xmlns="http://www.w3.org/2000/svg">
<path d="M0.242 57.208H-1.758V59.208H0.242V57.208ZM0.242 45.88L-1.58257 45.0609L-1.758 45.4517V45.88H0.242ZM20.498 0.759995V-1.24001H19.2036L18.6734 -0.0591202L20.498 0.759995ZM32.21 0.759995L33.95 -0.22603L33.3755 -1.24001H32.21V0.759995ZM33.842 3.64L35.6668 4.4586L36.0812 3.53483L35.582 2.65397L33.842 3.64ZM15.41 44.728L13.5852 43.9094L12.3208 46.728H15.41V44.728ZM31.922 44.728V46.728H33.922V44.728H31.922ZM31.922 25.72V23.72H29.922V25.72H31.922ZM45.746 25.72H47.746V23.72H45.746V25.72ZM45.746 67V69H47.746V67H45.746ZM31.922 67H29.922V69H31.922V67ZM31.922 57.208H33.922V55.208H31.922V57.208ZM2.242 57.208V45.88H-1.758V57.208H2.242ZM2.06657 46.6991L22.3226 1.57911L18.6734 -0.0591202L-1.58257 45.0609L2.06657 46.6991ZM20.498 2.75999H32.21V-1.24001H20.498V2.75999ZM30.47 1.74602L32.102 4.62602L35.582 2.65397L33.95 -0.22603L30.47 1.74602ZM32.0172 2.8214L13.5852 43.9094L17.2348 45.5466L35.6668 4.4586L32.0172 2.8214ZM15.41 46.728H31.922V42.728H15.41V46.728ZM33.922 44.728V25.72H29.922V44.728H33.922ZM31.922 27.72H45.746V23.72H31.922V27.72ZM43.746 25.72V67H47.746V25.72H43.746ZM45.746 65H31.922V69H45.746V65ZM33.922 67V57.208H29.922V67H33.922ZM31.922 55.208H0.242V59.208H31.922V55.208Z" fill="#FEAD29"/>
</svg>
