<svg width="144" height="71" viewBox="0 0 144 71" fill="none" xmlns="http://www.w3.org/2000/svg">
<path d="M10.0557 17.2315C10.952 11.957 15.3559 7.99018 20.695 7.64799L115.041 1.60126C120.172 1.27244 124.901 4.37693 126.64 9.21496L137.16 38.4857C139.665 45.4557 135.049 52.9475 127.697 53.8446L16.5801 67.4041C8.91452 68.3395 2.51091 61.6282 3.80471 54.015L10.0557 17.2315Z" stroke="white" stroke-width="2"/>
<path d="M31.6485 28.5534V30.781H34.6398V32.194H31.6485V34.5489H35.0217V36H29.8664V27.1023H35.0217V28.5534H31.6485ZM41.962 36L40.0399 33.0086L38.296 36H36.2848L39.0852 31.5193L36.2466 27.115H38.296L40.2181 30.0937L41.9492 27.115H43.9604L41.1728 31.583L44.0114 36H41.962ZM51.8468 29.8645C51.8468 30.3398 51.7322 30.7853 51.5031 31.2011C51.2824 31.6169 50.9303 31.9521 50.4465 32.2067C49.9713 32.4613 49.3688 32.5886 48.639 32.5886H47.1497V36H45.3676V27.115H48.639C49.3264 27.115 49.9119 27.2338 50.3956 27.4715C50.8793 27.7091 51.24 28.0358 51.4776 28.4516C51.7237 28.8674 51.8468 29.3384 51.8468 29.8645ZM48.5626 31.1502C49.0548 31.1502 49.4197 31.0399 49.6573 30.8192C49.895 30.5901 50.0138 30.2719 50.0138 29.8645C50.0138 28.999 49.53 28.5662 48.5626 28.5662H47.1497V31.1502H48.5626ZM54.8941 34.5871H57.8218V36H53.112V27.115H54.8941V34.5871ZM63.0788 36.0891C62.2471 36.0891 61.4834 35.8939 60.7875 35.5036C60.0916 35.1132 59.54 34.5743 59.1327 33.887C58.7254 33.1911 58.5217 32.4061 58.5217 31.5321C58.5217 30.6665 58.7254 29.89 59.1327 29.2026C59.54 28.5068 60.0916 27.9637 60.7875 27.5733C61.4834 27.1829 62.2471 26.9877 63.0788 26.9877C63.9189 26.9877 64.6826 27.1829 65.37 27.5733C66.0659 27.9637 66.6132 28.5068 67.0121 29.2026C67.4194 29.89 67.6231 30.6665 67.6231 31.5321C67.6231 32.4061 67.4194 33.1911 67.0121 33.887C66.6132 34.5743 66.0659 35.1132 65.37 35.5036C64.6741 35.8939 63.9104 36.0891 63.0788 36.0891ZM63.0788 34.498C63.6134 34.498 64.0844 34.3792 64.4917 34.1415C64.899 33.8954 65.2173 33.5475 65.4464 33.0977C65.6755 32.648 65.7901 32.1261 65.7901 31.5321C65.7901 30.938 65.6755 30.4204 65.4464 29.9791C65.2173 29.5293 64.899 29.1857 64.4917 28.948C64.0844 28.7104 63.6134 28.5916 63.0788 28.5916C62.5441 28.5916 62.0689 28.7104 61.6531 28.948C61.2458 29.1857 60.9275 29.5293 60.6984 29.9791C60.4693 30.4204 60.3547 30.938 60.3547 31.5321C60.3547 32.1261 60.4693 32.648 60.6984 33.0977C60.9275 33.5475 61.2458 33.8954 61.6531 34.1415C62.0689 34.3792 62.5441 34.498 63.0788 34.498ZM73.5314 36L71.5711 32.5377H70.731V36H68.9489V27.115H72.2839C72.9713 27.115 73.5568 27.2381 74.0406 27.4842C74.5243 27.7218 74.8849 28.0485 75.1225 28.4643C75.3686 28.8717 75.4917 29.3299 75.4917 29.8391C75.4917 30.4246 75.322 30.955 74.9825 31.4302C74.6431 31.897 74.1381 32.2194 73.4677 32.3976L75.5935 36H73.5314ZM70.731 31.2011H72.2203C72.704 31.2011 73.0647 31.0865 73.3023 30.8574C73.5399 30.6198 73.6587 30.2931 73.6587 29.8773C73.6587 29.4699 73.5399 29.156 73.3023 28.9353C73.0647 28.7062 72.704 28.5916 72.2203 28.5916H70.731V31.2011ZM78.8856 28.5534V30.781H81.877V32.194H78.8856V34.5489H82.2588V36H77.1035V27.1023H82.2588V28.5534H78.8856Z" fill="white"/>
<path d="M115.389 27.0041L119.632 31.2472M119.632 31.2472L115.389 35.4903M119.632 31.2472H94.1738" stroke="white" stroke-width="0.848611"/>
</svg>
