<svg width="46" height="67" viewBox="0 0 46 67" fill="none" xmlns="http://www.w3.org/2000/svg">
<path d="M0.242 67H-1.758V69H0.242V67ZM11.762 29.944L12.1542 31.9052L11.762 29.944ZM29.522 26.392L29.9142 28.3532H29.9142L29.522 26.392ZM2.162 13.24H0.162001V15.24H2.162V13.24ZM2.162 5.752L0.935752 4.17203L0.162001 4.77255V5.752H2.162ZM8.594 0.759995V-1.24001H7.90894L7.36775 -0.819979L8.594 0.759995ZM34.226 38.584L34.6182 40.5452L34.226 38.584ZM16.466 42.136L16.8582 44.0972H16.8582L16.466 42.136ZM14.066 54.52H12.066V56.52H14.066V54.52ZM45.746 54.52H47.746V52.52H45.746V54.52ZM45.746 67V69H47.746V67H45.746ZM2.242 67V45.4H-1.758V67H2.242ZM2.242 45.4C2.242 41.2922 3.1421 38.2797 4.72558 36.1552C6.28889 34.0578 8.68759 32.5985 12.1542 31.9052L11.3698 27.9828C7.15641 28.8255 3.79511 30.7102 1.51842 33.7648C-0.738101 36.7923 -1.758 40.7398 -1.758 45.4H2.242ZM12.1542 31.9052L29.9142 28.3532L29.1298 24.4308L11.3698 27.9828L12.1542 31.9052ZM29.9142 28.3532C31.0778 28.1205 32.1568 27.5701 32.9162 26.5677C33.6586 25.5878 33.922 24.4039 33.922 23.224H29.922C29.922 23.8361 29.7855 24.0762 29.7278 24.1523C29.6872 24.2059 29.5662 24.3435 29.1298 24.4308L29.9142 28.3532ZM33.922 23.224V16.12H29.922V23.224H33.922ZM33.922 16.12C33.922 14.8517 33.6036 13.5331 32.6162 12.5458C31.6289 11.5584 30.3103 11.24 29.042 11.24V15.24C29.3613 15.24 29.5593 15.2806 29.6695 15.3174C29.7227 15.3351 29.7532 15.3511 29.768 15.36C29.7821 15.3685 29.7869 15.3734 29.7878 15.3742C29.7886 15.3751 29.7936 15.3799 29.802 15.394C29.8109 15.4088 29.8269 15.4393 29.8446 15.4925C29.8814 15.6027 29.922 15.8007 29.922 16.12H33.922ZM29.042 11.24H2.162V15.24H29.042V11.24ZM4.162 13.24V5.752H0.162001V13.24H4.162ZM3.38825 7.33197L9.82025 2.33997L7.36775 -0.819979L0.935752 4.17203L3.38825 7.33197ZM8.594 2.75999H29.618V-1.24001H8.594V2.75999ZM29.618 2.75999C34.6857 2.75999 38.1191 4.02557 40.2998 6.20621C42.4804 8.38685 43.746 11.8203 43.746 16.888H47.746C47.746 11.2037 46.3236 6.57314 43.1282 3.37778C39.9329 0.182423 35.3023 -1.24001 29.618 -1.24001V2.75999ZM43.746 16.888V23.128H47.746V16.888H43.746ZM43.746 23.128C43.746 27.2358 42.8459 30.2483 41.2624 32.3728C39.6991 34.4702 37.3004 35.9295 33.8338 36.6228L34.6182 40.5452C38.8316 39.7025 42.1929 37.8178 44.4696 34.7632C46.7261 31.7357 47.746 27.7882 47.746 23.128H43.746ZM33.8338 36.6228L16.0738 40.1748L16.8582 44.0972L34.6182 40.5452L33.8338 36.6228ZM16.0738 40.1748C14.9102 40.4075 13.8312 40.9579 13.0718 41.9603C12.3295 42.9402 12.066 44.1241 12.066 45.304H16.066C16.066 44.6919 16.2025 44.4518 16.2602 44.3757C16.3008 44.3221 16.4218 44.1845 16.8582 44.0972L16.0738 40.1748ZM12.066 45.304V54.52H16.066V45.304H12.066ZM14.066 56.52H45.746V52.52H14.066V56.52ZM43.746 54.52V67H47.746V54.52H43.746ZM45.746 65H0.242V69H45.746V65Z" fill="white"/>
</svg>
